<?xml version="1.0" encoding="utf-8"?>
<!-- Generator: Adobe Illustrator 21.0.0, SVG Export Plug-In . SVG Version: 6.00 Build 0)  -->
<svg version="1.1" id="Layer_1" xmlns="http://www.w3.org/2000/svg" xmlns:xlink="http://www.w3.org/1999/xlink" x="0px" y="0px"
	 viewBox="0 0 828.1 160.1" style="enable-background:new 0 0 828.1 160.1;" xml:space="preserve">
<style type="text/css">
	.st0{fill:#FFFFFF;}
</style>
<g>
	<g>
		<path class="st0" d="M258.3,42.3c-6.8-6.4-15.9-9-25-9c-16.1,0-32.1,8.4-32.1,26.3c0,31.1,41.3,20.2,41.3,39.2
			c0,8-8.1,11.9-15.3,11.9c-6.9,0-13.4-3.3-17.2-9.1l-11.7,11.3c7.1,8.5,17.7,11.8,28.5,11.8c17.1,0,31.8-9.1,31.8-27.8
			c0-31-41.3-21-41.3-38.5c0-8,7.1-11.2,14.3-11.2c6,0,11.9,2.2,15.3,6.9L258.3,42.3z"/>
		<path class="st0" d="M264.5,76.5v27.1c0,13.9,3.7,21,19.4,21c3.5,0,8.6-0.5,11.7-2v-12.5c-1.9,1.4-5.4,1.8-8,1.8
			c-6.5,0-8.3-3.7-8.3-9.6V76.5h16.3V63.9h-16.3V44.6l-14.8,4.5v14.8h0L264.5,76.5L264.5,76.5z M357.7,63.9h-14.8v32.3
			c0,7.9-3.8,15-13.6,15c-10.4,0-10.9-10.8-10.9-17.4v-30H303l0.7,37.4c0,12.1,5.7,23.3,21.6,23.3c9.9,0,15.4-5.1,18.1-11h0.2v9.5
			h14.1V63.9z M415,123.1H429V33.3l-14.8,4.8v33.4h-0.4c-3.1-3.8-9-9-20.1-9c-16.9,0-28.6,13.6-28.6,31.1c0,17.5,11,31.1,29.2,31.1
			c8.3,0,16-3.2,20.3-10.4h0.3V123.1z M379.9,93.5c0-9.3,6.5-17.8,17.4-17.8c10.8,0,17.4,8.5,17.4,17.8c0,9.2-6.5,17.8-17.4,17.8
			C386.5,111.3,379.9,102.8,379.9,93.5 M459.4,123.6l-2.8,7c-2.5,6.2-4.4,8.8-11.7,8.8c-2.6,0-5.2-0.6-7.5-1.5l-1.9,13.3
			c3.7,1,7.5,1.5,11.4,1.5c13.1,0,18.2-5.8,22.6-16.9l28-71.9h-15.4L467.1,105h-0.2l-16.5-41.1h-16.3L459.4,123.6z M592.2,123.1H607
			V91.4c0-3.2,2-14.9,15.9-14.9c2.3,0,4.7,0.5,7.2,1.1V63.3c-1.7-0.5-3.4-0.9-5.3-0.9c-7.8,0-14.3,4.1-17.5,10.8H607v-9.4h-14.8
			V123.1z M630.1,93.5c0,18.6,14.3,31.1,32.2,31.1c17.9,0,32.2-12.4,32.2-31.1c0-18.6-14.3-31.1-32.2-31.1
			C644.4,62.4,630.1,74.9,630.1,93.5 M644.9,93.5c0-9.3,6.5-17.8,17.4-17.8c10.9,0,17.4,8.5,17.4,17.8c0,9.2-6.5,17.8-17.4,17.8
			C651.4,111.3,644.9,102.8,644.9,93.5 M754.9,63.9h-14.8v32.3c0,7.9-3.8,15-13.6,15c-10.4,0-10.9-10.8-10.9-17.4v-30h-14.8v37.4
			c0,12.1,5.7,23.3,21.6,23.3c9.9,0,15.4-5.1,18.1-11h0.2v9.5h14.1V63.9z M764.3,152.7l14.8-4.8v-32.3h0.4c3.1,3.8,9,9,20.1,9
			c16.9,0,28.6-13.6,28.6-31.1c0-17.5-11-31.1-29.2-31.1c-8.3,0-16,3.2-20.3,10.4h-0.2v-8.9h-14.1V152.7z M813.3,93.5
			c0,9.2-6.5,17.8-17.4,17.8c-10.8,0-17.4-8.5-17.4-17.8c0-9.3,6.5-17.8,17.4-17.8C806.8,75.7,813.3,84.3,813.3,93.5"/>
		<path class="st0" d="M583.2,72.1h-33.4v14.1h17.9v20.6c-5.4,3.1-12.6,4.6-20.5,4.6c-18,0-30-13.8-30-32.5c0-17.4,12-31.2,30-31.2
			c8.8,0,17.3,3.1,22.8,8.5l11.5-11.6c-9.1-8.1-21.1-11-34.4-11c-26.9,0-46.2,18.3-46.2,46.3c0,27.3,19.2,45.5,46.2,45.5
			c13.5,0,25.6-3,36.2-8.6V72.1z"/>
	</g>
	<g>
		<path class="st0" d="M19.4,31.5L34,43.9C38,33.5,51.9,11,97.2,1.9c-3.4-0.7-6.8-1.3-10.3-1.6c-0.2,0-0.3,0-0.5,0
			c-1-0.1-2-0.1-2.9-0.2c-0.1,0-0.2,0-0.2,0c-0.8,0-1.6,0-2.4-0.1c-0.5,0-1,0-1.5,0c-0.3,0-0.5,0-0.8,0c0.1,0,0.1,0,0.2,0
			c0,0,0,0-0.1,0c-0.3,0-0.7,0-1,0c-0.5,0-1,0-1.5,0.1c-0.9,0-1.8,0.1-2.7,0.2c-0.4,0-0.9,0.1-1.3,0.1c-0.9,0.1-1.8,0.2-2.8,0.3
			c-0.3,0-0.7,0.1-1,0.1C67.3,1,66.2,1.2,65,1.4c-0.1,0-0.2,0-0.4,0.1c-1.2,0.2-2.3,0.5-3.5,0.8c-0.2,0.1-0.5,0.1-0.7,0.2
			c-1,0.3-2,0.5-3,0.8c-0.4,0.1-0.8,0.3-1.3,0.4c-0.8,0.3-1.6,0.5-2.4,0.8c-0.7,0.2-1.3,0.5-2,0.7c-0.6,0.2-1.1,0.4-1.7,0.6
			c-0.9,0.4-1.8,0.8-2.7,1.2c-0.3,0.1-0.6,0.3-0.9,0.4c-1.1,0.5-2.2,1-3.3,1.6c-0.1,0-0.1,0-0.1,0.1c0.2-0.1,0.3-0.1,0.5-0.2
			c-0.9,0.4-1.7,0.9-2.6,1.4c0.7-0.4,1.3-0.8,2-1.1c0,0-0.1,0-0.1,0c-1.8,1-3.6,2-5.3,3.1c1-0.6,2.1-1.3,3.1-1.9
			c-1.1,0.6-2.2,1.3-3.3,2c-4.5,2.9-8.5,6-12.2,9.4c-0.5,0.5-1,1-1.5,1.5c-0.3,0.3-0.6,0.6-0.9,0.9c-0.5,0.5-1,1.1-1.5,1.6
			c-0.4,0.5-0.9,1-1.3,1.5c-0.3,0.4-0.6,0.7-0.9,1.1C18.3,29.4,18.4,30.7,19.4,31.5z"/>
	</g>
	<path class="st0" d="M65,156.3l4.1-17.9c-12.4,1.1-36.9-2-65.2-33.6c1.4,4.2,3,8.3,5.1,12.3l0,0c-0.1-0.1-0.1-0.3-0.2-0.4
		c0.3,0.6,0.6,1.2,1,1.8c-0.2-0.3-0.4-0.7-0.6-1c0,0,0,0,0,0c1,2,2.2,3.9,3.3,5.7c-0.7-1.1-1.4-2.3-2.1-3.4
		c6.1,10.6,14.5,19.7,24.7,26.7c0,0,0,0,0,0c0.8,0.5,1.6,1,2.4,1.6c0.6,0.4,1.2,0.7,1.8,1.1c-0.4-0.2-0.8-0.5-1.2-0.7
		c0,0,0.1,0,0.1,0.1c0.3,0.2,0.6,0.4,0.9,0.6c0.2,0.1,0.4,0.2,0.6,0.3c1.1,0.6,2.2,1.2,3.3,1.8c4.5,2.3,9,4.1,13.5,5.5
		c0.4,0.1,0.7,0.2,1.1,0.4c0.2,0.1,0.4,0.1,0.6,0.2c1.2,0.3,2.4,0.6,3.6,0.9c0.1,0,0.2,0,0.3,0.1C63.5,158.4,64.8,157.6,65,156.3z"
		/>
	<path class="st0" d="M160,80.8c0-1,0-2,0-2.9c0,0.7,0,1.4,0.1,2.1c0-0.1,0-0.1,0-0.2c0-0.6,0-1.2,0-1.8c0-0.1,0-0.3,0-0.4
		c0-1.2-0.1-2.4-0.2-3.6c0.1,1.2,0.2,2.4,0.2,3.6c-0.1-1.3-0.1-2.6-0.3-3.9c-0.5-5.2-1.4-10.1-2.6-14.8c-0.1-0.2-0.1-0.4-0.2-0.6
		l0,0c-0.2-0.7-0.4-1.5-0.7-2.2c-0.4-1.2-1.7-1.8-2.9-1.4l-17,5.4c7.4,10.6,16.3,32.8,5,71.7c2.3-2.8,4.5-5.8,6.5-8.9l0,0
		c-0.1,0.1-0.2,0.3-0.3,0.4c0.4-0.6,0.7-1.2,1.1-1.7c-0.2,0.4-0.5,0.8-0.7,1.2v0c0.8-1.3,1.5-2.6,2.2-3.9c0.2-0.4,0.5-0.8,0.7-1.3
		c3.6-6.9,6.2-14.3,7.7-21.9c0-0.1,0-0.3,0.1-0.4c0.2-1.1,0.4-2.2,0.6-3.3c0.1-0.8,0.2-1.7,0.3-2.6c0-0.4,0.1-0.8,0.1-1.2
		c0.1-1,0.2-2.1,0.2-3.1c0-0.3,0-0.5,0-0.8c0.1-1.2,0.1-2.4,0.1-3.6c0,0,0,0,0,0C160,80.5,160,80.6,160,80.8z"/>
	<path class="st0" d="M104.1,3.8L97.9,5C53.5,14,40.5,36,37,45.1l-0.4,1l14.3,12.1c1,0.9,2.5,0.7,3.4-0.3c19-22.3,52.7-25,75-6
		c0,0,3.4,2.4,7.2,7.9l17-5.4c1.2-0.4,2.5,0.3,2.9,1.4C148.4,31.1,128.9,11.6,104.1,3.8z"/>
	<path class="st0" d="M138.3,130.7c11.1-38.3,1.9-59.6-4.6-69l-0.6-0.8l-19.2,6.1c-1.3,0.4-1.9,1.7-1.6,3
		c8.8,27.9-6.8,57.9-34.7,66.8c0,0-3.1,1.3-8.6,1.8L65,156.3c-0.3,1.3-1.5,2.1-2.8,1.8c26.5,6,54.7-1.9,74.2-21.3L138.3,130.7z"/>
	<path class="st0" d="M29.9,127.4c-0.6-0.4-1.3-0.8-1.9-1.2C28.6,126.6,29.3,127,29.9,127.4z"/>
	<path class="st0" d="M25.3,124.3c-0.6-0.5-1.3-0.9-2-1.4C24,123.4,24.7,123.9,25.3,124.3z"/>
	<path class="st0" d="M20.6,120.8c-0.7-0.5-1.3-1-2-1.6C19.3,119.7,20,120.2,20.6,120.8z"/>
	<path class="st0" d="M15.7,116.7c-0.6-0.6-1.3-1.1-1.9-1.7C14.4,115.5,15.1,116.1,15.7,116.7z"/>
	<path class="st0" d="M8.9,110.2c0.6,0.6,1.1,1.1,1.7,1.6C10,111.3,9.4,110.7,8.9,110.2z"/>
	<path class="st0" d="M63.3,138.6c0.4,0,0.7,0,1.1,0C64,138.6,63.7,138.6,63.3,138.6z"/>
	<path class="st0" d="M38.5,132.2c-0.5-0.3-1.1-0.5-1.6-0.8C37.5,131.6,38,131.9,38.5,132.2z"/>
	<path class="st0" d="M34.3,130c-0.6-0.3-1.2-0.7-1.8-1C33.1,129.3,33.7,129.7,34.3,130z"/>
	<path class="st0" d="M42.6,134c-0.4-0.2-0.8-0.4-1.2-0.5C41.8,133.6,42.2,133.8,42.6,134z"/>
	<path class="st0" d="M58.5,138.2c-0.4,0-0.9-0.1-1.3-0.2C57.6,138.1,58.1,138.1,58.5,138.2z"/>
	<path class="st0" d="M61.6,138.5c-0.4,0-0.8-0.1-1.2-0.1C60.8,138.4,61.2,138.5,61.6,138.5z"/>
	<path class="st0" d="M72.4,113.2c-28.5-6.6-46.5-35.1-40.1-63.7c0,0,0.3-2.1,1.6-5.5L19.4,31.5c-1-0.8-1.1-2.1-0.4-3.1
		C2.8,47.4-3.6,73.2,2,97.9l4.3,4.8c24.2,27,45.3,32.7,58.7,32.7c1.3,0,2.6-0.1,3.8-0.2l1-0.1l4.4-19.1
		C74.5,114.7,73.7,113.5,72.4,113.2z"/>
	<path class="st0" d="M66.8,138.6c-0.2,0-0.5,0-0.7,0C66.4,138.6,66.6,138.6,66.8,138.6z"/>
	<path class="st0" d="M46.5,135.4L46.5,135.4L46.5,135.4z"/>
	<path class="st0" d="M51.4,136.9c-0.4-0.1-0.8-0.2-1.2-0.3C50.7,136.7,51.1,136.8,51.4,136.9z"/>
	<path class="st0" d="M55.1,137.7c-0.4-0.1-0.9-0.2-1.3-0.2C54.3,137.5,54.7,137.6,55.1,137.7z"/>
</g>
</svg>
