<?xml version="1.0" encoding="utf-8"?>
<!-- Generator: Adobe Illustrator 21.0.0, SVG Export Plug-In . SVG Version: 6.00 Build 0)  -->
<svg version="1.1" id="Layer_1" xmlns="http://www.w3.org/2000/svg" xmlns:xlink="http://www.w3.org/1999/xlink" x="0px" y="0px"
	 viewBox="0 0 828.1 160.1" enable-background="new 0 0 828.1 160.1" xml:space="preserve">
<g>
	<g>
		<path fill="#95180A" d="M20.3,31.458l14.589,12.413c4.063-10.444,17.899-32.876,63.162-41.997
			c-3.355-0.741-6.788-1.277-10.287-1.581c-0.162-0.015-0.323-0.027-0.484-0.041c-0.978-0.079-1.96-0.142-2.947-0.185
			c-0.076-0.004-0.152-0.01-0.229-0.013c-0.812-0.033-1.63-0.042-2.447-0.051c-0.512-0.003-1.022,0.002-1.533,0.009
			c-0.268,0.003-0.537,0.002-0.806,0.008c0.058-0.001,0.115-0.003,0.173-0.004c-0.021,0-0.042-0.001-0.063,0
			c-0.329,0.006-0.658,0.014-0.986,0.023c-0.493,0.017-0.983,0.05-1.475,0.075c-0.888,0.045-1.774,0.098-2.659,0.172
			c-0.429,0.036-0.854,0.081-1.281,0.123c-0.917,0.092-1.833,0.193-2.746,0.316c-0.336,0.045-0.672,0.094-1.007,0.143
			c-1.12,0.165-2.239,0.346-3.353,0.558c-0.119,0.023-0.237,0.049-0.356,0.071c-1.168,0.229-2.332,0.483-3.491,0.763
			c-0.234,0.058-0.468,0.119-0.702,0.179c-1.02,0.256-2.034,0.531-3.044,0.828c-0.419,0.123-0.836,0.256-1.253,0.387
			c-0.807,0.251-1.611,0.512-2.411,0.788c-0.654,0.228-1.306,0.471-1.956,0.717c-0.553,0.208-1.106,0.416-1.655,0.637
			c-0.9,0.363-1.798,0.748-2.691,1.148c-0.301,0.134-0.604,0.264-0.903,0.401c-1.1,0.508-2.195,1.043-3.283,1.606
			C44.124,8.976,44.075,9,44.026,9.026c0.154-0.077,0.31-0.148,0.46-0.227c-0.861,0.448-1.725,0.908-2.574,1.392
			c0.661-0.37,1.315-0.75,1.991-1.103c-0.029,0.016-0.059,0.03-0.09,0.046c-1.837,0.966-3.61,2.003-5.338,3.091
			c1.021-0.639,2.06-1.259,3.12-1.856c-1.121,0.644-2.229,1.317-3.318,2.023c-4.462,2.893-8.509,6.026-12.175,9.384
			c-0.512,0.483-1.016,0.972-1.514,1.465c-0.31,0.309-0.621,0.614-0.927,0.929c-0.521,0.535-1.03,1.079-1.535,1.627
			c-0.444,0.483-0.884,0.973-1.317,1.469c-0.307,0.35-0.61,0.702-0.91,1.057C19.206,29.311,19.352,30.674,20.3,31.458z"/>
		<path fill="#00567B" d="M69.957,138.213l5.099-22.385c0.299-1.285-0.508-2.555-1.787-2.85
			c-28.49-6.539-46.439-35.064-39.99-63.589c0,0,0.292-2.13,1.61-5.519L20.3,31.458c-0.948-0.783-1.095-2.146-0.401-3.137
			C2.296,49.125-3.809,78.021,4.845,104.646C33.073,136.221,57.58,139.295,69.957,138.213z"/>
		<path fill="#0092D5" d="M137.091,59.734l-22.36,7.069c-1.26,0.391-1.948,1.729-1.555,2.981
			c8.765,27.887-6.769,57.795-34.639,66.657c0,0-3.105,1.291-8.58,1.771l-4.061,17.834c-0.271,1.266-1.517,2.045-2.782,1.779
			c28.764,6.543,59.509-3.291,78.978-26.512C153.343,92.521,144.439,70.333,137.091,59.734z"/>
		<path fill="#003952" d="M65.896,156.047l4.061-17.834c-12.378,1.082-36.885-1.992-65.112-33.566
			c1.351,4.156,3.042,8.258,5.124,12.262c0,0,0,0,0.001,0c-0.072-0.147-0.141-0.295-0.217-0.439
			c0.312,0.604,0.637,1.205,0.965,1.801c-0.189-0.344-0.384-0.684-0.571-1.027c0.005,0.008,0.009,0.014,0.013,0.021
			c1.034,1.965,2.148,3.857,3.32,5.697c-0.711-1.117-1.397-2.252-2.055-3.414c6.044,10.539,14.452,19.699,24.685,26.613
			c0.016,0.012,0.032,0.021,0.048,0.031c0.798,0.539,1.62,1.047,2.44,1.559c0.582,0.359,1.162,0.723,1.757,1.066
			c-0.411-0.242-0.821-0.488-1.232-0.73c0.038,0.023,0.075,0.049,0.114,0.072c0.314,0.189,0.629,0.377,0.944,0.561
			c0.195,0.115,0.396,0.223,0.592,0.336c1.089,0.621,2.193,1.219,3.317,1.783c4.497,2.258,8.989,4.072,13.483,5.504
			c0.375,0.113,0.742,0.242,1.12,0.352c0.186,0.053,0.373,0.101,0.56,0.152c1.181,0.33,2.374,0.637,3.581,0.916
			c0.093,0.022,0.186,0.043,0.278,0.065C64.379,158.092,65.625,157.312,65.896,156.047z"/>
		<path fill="#E4220F" d="M34.889,43.871l16.825,14.315c1,0.859,2.498,0.734,3.352-0.266c18.979-22.23,52.572-24.944,74.879-6.027
			c0,0,3.367,2.389,7.146,7.841l16.969-5.365c1.205-0.401,2.482,0.252,2.916,1.438c-8.548-26.977-30.98-47.764-58.925-53.933
			C52.789,10.995,38.953,33.426,34.889,43.871z"/>
		<path fill="#006A94" d="M160.741,80.61c0.002-0.974-0.007-1.948-0.043-2.926c0.02,0.686,0.046,1.368,0.052,2.057
			c0-0.063,0.001-0.128,0-0.191c-0.004-0.598-0.013-1.193-0.03-1.787c-0.005-0.15-0.008-0.3-0.013-0.449
			c-0.044-1.219-0.123-2.429-0.222-3.633c0.095,1.206,0.164,2.42,0.204,3.642c-0.054-1.292-0.139-2.585-0.259-3.881
			c-0.489-5.176-1.371-10.104-2.607-14.813c-0.059-0.212-0.112-0.424-0.174-0.635c0-0.002,0-0.003-0.001-0.004
			c-0.21-0.733-0.442-1.457-0.672-2.183c-0.434-1.186-1.711-1.839-2.916-1.438l-16.969,5.365
			c7.348,10.599,16.252,32.787,5.001,71.581c2.336-2.785,4.51-5.764,6.498-8.928c0.001-0.004,0.003-0.006,0.004-0.008
			c-0.096,0.146-0.196,0.289-0.29,0.439c0.363-0.576,0.719-1.16,1.066-1.744c-0.235,0.393-0.454,0.789-0.696,1.18
			c0-0.002,0.001-0.002,0.002-0.004c0.795-1.271,1.526-2.562,2.234-3.861c0.229-0.422,0.453-0.846,0.677-1.269
			c3.588-6.861,6.197-14.234,7.692-21.889c0.024-0.129,0.046-0.258,0.07-0.385c0.211-1.11,0.398-2.224,0.562-3.343
			c0.123-0.847,0.237-1.696,0.333-2.551c0.047-0.412,0.088-0.826,0.128-1.239c0.101-1.04,0.186-2.085,0.245-3.136
			c0.016-0.257,0.027-0.514,0.04-0.77c0.055-1.176,0.088-2.358,0.092-3.548c0-0.011,0-0.021,0-0.031
			C160.747,80.354,160.742,80.482,160.741,80.61z"/>
	</g>
	<g>
		<path fill="#3A3C42" d="M258.84,42.27c-6.747-6.379-15.825-8.953-24.908-8.953c-16.093,0-32.035,8.338-32.035,26.254
			c0,31.07,41.243,20.138,41.243,39.17c0,7.975-8.107,11.91-15.228,11.91c-6.884,0-13.388-3.312-17.188-9.086l-11.649,11.297
			c7.11,8.459,17.66,11.764,28.467,11.764c17.075,0,31.785-9.066,31.785-27.725c0-30.941-41.241-20.992-41.241-38.43
			c0-7.982,7.123-11.173,14.246-11.173c6.02,0,11.908,2.208,15.228,6.877L258.84,42.27z"/>
		<path fill="#3A3C42" d="M265.03,76.358v27.082c0,13.906,3.686,20.928,19.322,20.928c3.454,0,8.621-0.492,11.704-1.971v-12.432
			c-1.85,1.354-5.421,1.848-8.004,1.848c-6.523,0-8.246-3.693-8.246-9.602V76.358h16.25V63.799h-16.25V44.537l-14.776,4.485v14.777
			h0.042L265.03,76.358L265.03,76.358z M358.049,63.799H343.28v32.251c0,7.883-3.822,15.021-13.548,15.021
			c-10.34,0-10.836-10.83-10.836-17.357V63.799h-15.483l0.717,37.304c0,12.062,5.664,23.264,21.54,23.264
			c9.847,0,15.39-5.047,18.102-10.959h0.246v9.48h14.032V63.799z M415.22,122.889h14.032V33.25l-14.774,4.766v33.295h-0.369
			c-3.08-3.819-8.987-8.987-20.066-8.987c-16.859,0-28.558,13.54-28.558,31.021c0,17.484,10.955,31.023,29.176,31.023
			c8.243,0,16.002-3.199,20.303-10.342h0.255V122.889z M380.254,93.344c0-9.232,6.521-17.73,17.36-17.73
			c10.829,0,17.35,8.498,17.35,17.73c0,9.234-6.521,17.728-17.35,17.728C386.775,111.072,380.254,102.578,380.254,93.344
			 M459.534,123.385l-2.835,7.014c-2.463,6.162-4.426,8.746-11.693,8.746c-2.586,0-5.168-0.619-7.506-1.486l-1.85,13.303
			c3.694,0.982,7.509,1.479,11.328,1.479c13.042,0,18.222-5.781,22.523-16.869l27.95-71.771h-15.39l-14.771,40.998h-0.245
			l-16.501-40.998h-16.249L459.534,123.385z M592.121,122.889h14.771V91.247c0-3.197,1.97-14.889,15.881-14.889
			c2.339,0,4.677,0.494,7.143,1.107V63.181c-1.725-0.489-3.446-0.857-5.295-0.857c-7.757,0-14.28,4.058-17.483,10.829h-0.245v-9.354
			h-14.771V122.889z M629.938,93.344c0,18.595,14.282,31.023,32.129,31.023c17.851,0,32.131-12.428,32.131-31.023
			c0-18.588-14.28-31.021-32.131-31.021C644.221,62.324,629.938,74.756,629.938,93.344 M644.712,93.344
			c0-9.232,6.523-17.73,17.356-17.73c10.826,0,17.359,8.498,17.359,17.73c0,9.234-6.533,17.728-17.359,17.728
			C651.235,111.072,644.712,102.578,644.712,93.344 M754.52,63.799h-14.775v32.251c0,7.883-3.817,15.021-13.539,15.021
			c-10.345,0-10.836-10.83-10.836-17.357V63.799h-14.767v37.304c0,12.062,5.656,23.264,21.538,23.264
			c9.847,0,15.388-5.047,18.1-10.959h0.243v9.48h14.036V63.799z M763.876,152.434l14.774-4.773v-32.279h0.368
			c3.075,3.816,8.984,8.986,20.066,8.986c16.864,0,28.562-13.539,28.562-31.023c0-17.48-10.957-31.021-29.179-31.021
			c-8.245,0-16.007,3.195-20.31,10.341h-0.246v-8.865h-14.037V152.434z M812.874,93.344c0,9.234-6.533,17.728-17.365,17.728
			c-10.826,0-17.35-8.494-17.35-17.728c0-9.232,6.523-17.73,17.35-17.73C806.341,75.614,812.874,84.112,812.874,93.344"/>
		<path fill="#3A3C42" d="M583.171,72.008h-33.384V86.04h17.873v20.595c-5.421,3.084-12.572,4.561-20.462,4.561
			c-17.999,0-29.955-13.811-29.955-32.417c0-17.375,11.956-31.184,29.955-31.184c8.749,0,17.255,3.082,22.801,8.511l11.447-11.589
			c-9.109-8.121-21.056-10.953-34.376-10.953c-26.865,0-46.077,18.225-46.077,46.204c0,27.239,19.212,45.458,46.077,45.458
			c13.44,0,25.512-2.949,36.101-8.613V72.008z"/>
	</g>
</g>
</svg>
