<?xml version="1.0" encoding="utf-8"?>
<!-- Generator: Adobe Illustrator 22.1.0, SVG Export Plug-In . SVG Version: 6.00 Build 0)  -->
<svg version="1.1" id="Layer_1" xmlns="http://www.w3.org/2000/svg" xmlns:xlink="http://www.w3.org/1999/xlink" x="0px" y="0px"
	 viewBox="0 0 250 42.609" enable-background="new 0 0 250 42.609" xml:space="preserve">
<g>
	<path fill="#393B42" d="M14.124,7.388v23.805H8.637V7.388H1.25V2.703h20.26v4.685H14.124z"/>
	<path fill="#393B42" d="M32.23,22.413c0,2.534-1.815,5.066-4.475,5.066c-1.561,0-2.49-0.885-2.49-2.235
		c0-1.689,1.267-3.335,6.964-3.335V22.413z M37.759,31.193c-0.084-1.73-0.126-3.714-0.126-5.403v-8.736
		c0-4.559-1.899-7.302-8.653-7.302c-2.701,0-5.403,0.548-7.513,1.308l0.464,4.516c1.772-1.012,4.305-1.645,6.205-1.645
		c3.039,0,4.094,1.139,4.094,3.334v1.139c-7.133,0-12.114,2.658-12.114,7.682c0,3.377,2.195,5.529,5.994,5.529
		c3.124,0,5.698-1.645,6.711-4.01l0.042,0.042c-0.168,1.097-0.211,2.323-0.211,3.545H37.759z"/>
	<path fill="#393B42" d="M51.645,33.135c-2.49,6.543-4.685,8.525-9.497,8.525c-0.929,0-2.068-0.127-2.954-0.335l0.338-4.643
		c0.971,0.293,1.857,0.462,2.87,0.462c1.773,0,2.955-0.801,4.052-3.924l0.717-2.027l-7.724-20.977h5.993l2.828,8.019
		c0.633,1.815,1.182,3.885,1.646,5.782h0.042c0.464-1.897,1.35-4.682,2.025-6.667l2.491-7.134h5.782L51.645,33.135z"/>
	<path fill="#393B42" d="M63.294,31.193V0.382h5.403v30.811H63.294z"/>
	<path fill="#393B42" d="M87.099,20.6c0,4.262-2.026,6.413-4.685,6.413c-3.124,0-4.685-2.193-4.685-6.498
		c0-4.305,2.364-6.163,4.77-6.163C85.664,14.353,87.099,16.547,87.099,20.6z M92.67,20.304c0-7.217-3.841-10.51-9.792-10.51
		c-6.374,0-10.721,4.728-10.721,11.268c0,7.47,3.841,10.553,9.792,10.553C88.239,31.616,92.67,26.89,92.67,20.304z"/>
	<path fill="#393B42" d="M107.4,15.07c-3.883-0.802-5.825,1.731-5.825,7.554v8.569h-5.403V10.216h5.107
		c0,1.056-0.127,2.744-0.38,4.221h0.085c1.013-2.66,3.039-4.981,6.668-4.685L107.4,15.07z"/>
	<path fill="#393B42" d="M114.786,31.616c-1.519,0-3.039-0.169-4.389-0.38l0.126-4.43c1.309,0.335,2.913,0.631,4.517,0.631
		c2.068,0,3.419-0.843,3.419-2.235c0-3.715-8.484-1.604-8.484-8.738c0-3.672,2.997-6.711,8.905-6.711
		c1.224,0,2.575,0.169,3.841,0.38l-0.168,4.262c-1.182-0.338-2.574-0.548-3.883-0.548c-2.11,0-3.123,0.844-3.123,2.152
		c0,3.417,8.611,1.898,8.611,8.695C124.157,28.829,120.527,31.616,114.786,31.616z"/>
</g>
<g>
	<path fill="#D70223" d="M139.899,31.531c-9.158,0-12.957-5.825-12.957-13.843c0-8.696,4.305-15.238,13.927-15.238
		c2.199,0,4.434,0.337,6.461,0.843l-0.423,3.546c-2.196-0.675-4.305-1.013-6.461-1.013c-6.498,0-9.283,4.981-9.283,11.227
		c0,7.005,3.039,11.017,9.664,11.017c2.072,0,4.688-0.592,6.377-1.435l0.423,3.459C145.472,30.983,142.771,31.531,139.899,31.531z"
		/>
	<path fill="#D70223" d="M165.264,20.558c0,5.359-2.701,7.809-5.824,7.809c-3.842,0-5.909-2.788-5.909-7.851
		c0-5.192,2.87-7.513,5.909-7.513C163.322,13.002,165.264,15.787,165.264,20.558z M169.231,20.347c0-7.556-4.093-10.51-9.455-10.51
		c-6.329,0-10.21,4.897-10.21,11.057c0,7.389,3.713,10.68,9.41,10.68C165.18,31.573,169.231,26.678,169.231,20.347z"/>
	<path fill="#D70223" d="M172.82,31.193V0.382h3.797v30.811H172.82z"/>
	<path fill="#D70223" d="M182.105,31.193V0.382h3.797v30.811H182.105z"/>
	<path fill="#D70223" d="M203.42,17.773h-9.793c0.423-3.082,2.362-5.151,5.108-5.151C201.689,12.622,203.505,14.691,203.42,17.773z
		 M207.302,18.658c0-4.811-2.489-8.821-8.398-8.821c-5.954,0-9.37,4.685-9.37,10.975c0,7.386,3.459,10.762,9.917,10.762
		c2.619,0,5.066-0.465,7.093-1.309l-0.338-3.081c-1.689,0.804-3.969,1.311-6.12,1.311c-4.474,0-6.797-2.407-6.628-8.02h13.717
		C207.26,19.755,207.302,19.165,207.302,18.658z"/>
	<path fill="#D70223" d="M224.058,17.561c0,3.081-2.027,4.812-5.193,4.812c-3.29,0-5.19-1.689-5.19-4.812
		c0-2.828,1.985-4.897,5.317-4.897C222.2,12.664,224.058,14.48,224.058,17.561z M229.251,34.232c0-3.799-2.534-5.992-7.093-5.992
		h-3.882c-2.534,0-3.589-0.465-3.589-1.646c0-0.676,0.423-1.35,1.35-1.731c0.719,0.127,1.773,0.254,2.661,0.254
		c5.993,0,9.117-3.293,9.117-7.809c0-1.774-0.676-3.251-1.773-4.094h3.544v-2.998h-7.132c-1.097-0.252-2.069-0.379-3.293-0.379
		c-5.866,0-9.201,3.672-9.201,8.102c0,2.661,1.015,4.812,3.081,5.993c-1.477,0.676-2.362,2.027-2.362,3.504
		c0,1.393,0.801,2.492,2.066,3.081c-1.855,0.971-3.459,2.956-3.459,5.445c0,4.011,3.417,6.162,8.821,6.162
		C224.693,42.125,229.251,38.663,229.251,34.232z M225.493,34.697c0,2.574-2.489,4.389-6.794,4.389c-3.293,0-5.658-1.35-5.658-3.839
		c0-1.604,1.057-2.997,2.701-3.842h5.362C224.058,31.404,225.493,32.67,225.493,34.697z"/>
	<path fill="#D70223" d="M244.865,17.773h-9.79c0.423-3.082,2.362-5.151,5.105-5.151C243.137,12.622,244.95,14.691,244.865,17.773z
		 M248.75,18.658c0-4.811-2.492-8.821-8.401-8.821c-5.951,0-9.37,4.685-9.37,10.975c0,7.386,3.462,10.762,9.92,10.762
		c2.616,0,5.066-0.465,7.09-1.309l-0.335-3.081c-1.689,0.804-3.969,1.311-6.12,1.311c-4.477,0-6.797-2.407-6.628-8.02h13.717
		C248.708,19.755,248.75,19.165,248.75,18.658z"/>
</g>
</svg>
